<svg version="1.1" id="Layer_1" xmlns="http://www.w3.org/2000/svg" xmlns:xlink="http://www.w3.org/1999/xlink" x="0px" y="0px"
	 width="100%" viewBox="0 0 440 223" enable-background="new 0 0 440 223" xml:space="preserve">
<path fill="#2C3043" opacity="1.000000" stroke="none" 
	d="
M308.000000,224.000000 
	C205.333359,224.000000 103.166702,224.000000 1.000041,224.000000 
	C1.000027,149.666702 1.000027,75.333397 1.000014,1.000071 
	C147.666611,1.000047 294.333221,1.000047 440.999878,1.000024 
	C440.999908,75.333260 440.999908,149.666519 440.999939,223.999893 
	C396.833344,224.000000 352.666656,224.000000 308.000000,224.000000 
M300.500000,179.000000 
	C341.891602,179.000000 383.283203,179.000000 424.652039,179.000000 
	C424.652039,151.598557 424.652039,125.031693 424.652039,98.416458 
	C331.645599,98.416458 238.987747,98.416458 146.347870,98.416458 
	C146.347870,125.401260 146.347870,151.968109 146.347870,179.000000 
	C197.629547,179.000000 248.564774,179.000000 300.500000,179.000000 
M185.500000,36.000000 
	C129.117035,36.000000 72.734062,36.000000 16.401611,36.000000 
	C16.401611,55.044769 16.401611,73.413673 16.401611,91.573936 
	C83.475929,91.573936 150.147919,91.573936 216.686829,91.573936 
	C216.686829,72.896095 216.686829,54.645817 216.686829,36.000000 
	C206.419220,36.000000 196.459610,36.000000 185.500000,36.000000 
M426.000000,77.494286 
	C426.000000,63.743389 426.000000,49.992493 426.000000,36.309639 
	C358.613007,36.309639 292.022797,36.309639 225.398834,36.309639 
	C225.398834,54.997860 225.398834,73.373566 225.398834,91.689674 
	C292.388336,91.689674 358.978546,91.689674 426.000000,91.689674 
	C426.000000,87.089592 426.000000,82.790024 426.000000,77.494286 
M15.945829,178.689957 
	C16.935295,178.792160 17.924723,178.983307 18.914232,178.983704 
	C57.231762,178.999084 95.549301,179.001648 133.866821,178.977020 
	C135.129440,178.976212 136.391861,178.675873 137.601730,178.521851 
	C137.601730,151.575043 137.601730,125.017998 137.601730,98.357468 
	C96.650040,98.357468 56.097572,98.357468 15.000010,98.357468 
	C15.000010,103.664253 14.981822,108.622353 15.003157,113.580276 
	C15.095594,135.062088 15.199576,156.543869 15.945829,178.689957 
M393.500000,185.000000 
	C267.782684,185.000000 142.065353,185.000000 16.394623,185.000000 
	C16.394623,193.038712 16.394623,200.421539 16.394623,207.586594 
	C153.469269,207.586594 290.148987,207.586594 426.693787,207.586594 
	C426.693787,199.905380 426.693787,192.640793 426.693787,185.000000 
	C415.761414,185.000000 405.130707,185.000000 393.500000,185.000000 
M382.500000,20.999996 
	C396.332977,20.999981 410.167877,20.874290 423.997711,21.083036 
	C427.734467,21.139439 428.937988,19.683189 429.030212,16.272999 
	C429.172699,11.003939 428.172058,10.001753 422.138275,10.001643 
	C301.807648,9.999454 181.476990,9.999965 61.146358,10.000658 
	C59.979801,10.000665 58.738541,9.764104 57.668789,10.088528 
	C56.699352,10.382527 55.451530,11.114655 55.127232,11.960597 
	C52.964836,17.601307 55.432907,20.999605 61.507153,20.999634 
	C168.171432,21.000135 274.835724,20.999996 382.500000,20.999996 
M12.459733,18.822760 
	C14.280855,19.038391 16.926588,20.078175 17.728827,19.275488 
	C18.916676,18.086973 18.796421,15.591080 19.306099,13.327505 
	C16.433661,13.327505 14.387965,13.327505 12.109457,13.327505 
	C12.109457,15.115718 12.109457,16.577484 12.459733,18.822760 
M24.013851,17.195595 
	C24.458391,20.730202 27.561991,20.750259 29.159739,19.618542 
	C30.609268,18.591812 30.729301,15.688116 31.435480,13.611930 
	C30.963886,13.317476 30.492290,13.023022 30.020695,12.728568 
	C28.169559,14.251824 23.738070,10.427924 24.013851,17.195595 
M38.178989,14.656763 
	C38.890133,16.311674 39.359600,18.160982 40.447189,19.513098 
	C40.813961,19.969076 43.470631,19.538263 43.822533,18.859968 
	C44.654640,17.256071 44.731773,15.260491 45.321602,12.426719 
	C42.243778,13.138418 40.433445,13.557030 38.178989,14.656763 
z"/>
<path fill="#1BC1A1" opacity="1.000000" stroke="none" 
	d="
M300.000000,179.000000 
	C248.564774,179.000000 197.629547,179.000000 146.347870,179.000000 
	C146.347870,151.968109 146.347870,125.401260 146.347870,98.416458 
	C238.987747,98.416458 331.645599,98.416458 424.652039,98.416458 
	C424.652039,125.031693 424.652039,151.598557 424.652039,179.000000 
	C383.283203,179.000000 341.891602,179.000000 300.000000,179.000000 
z"/>
<path fill="#FD825C" opacity="1.000000" stroke="none" 
	d="
M186.000000,36.000000 
	C196.459610,36.000000 206.419220,36.000000 216.686829,36.000000 
	C216.686829,54.645817 216.686829,72.896095 216.686829,91.573936 
	C150.147919,91.573936 83.475929,91.573936 16.401611,91.573936 
	C16.401611,73.413673 16.401611,55.044769 16.401611,36.000000 
	C72.734062,36.000000 129.117035,36.000000 186.000000,36.000000 
z"/>
<path fill="#FC6057" opacity="1.000000" stroke="none" 
	d="
M426.000000,77.992371 
	C426.000000,82.790024 426.000000,87.089592 426.000000,91.689674 
	C358.978546,91.689674 292.388336,91.689674 225.398834,91.689674 
	C225.398834,73.373566 225.398834,54.997860 225.398834,36.309639 
	C292.022797,36.309639 358.613007,36.309639 426.000000,36.309639 
	C426.000000,49.992493 426.000000,63.743389 426.000000,77.992371 
z"/>
<path fill="#01A787" opacity="1.000000" stroke="none" 
	d="
M15.622595,178.357803 
	C15.199576,156.543869 15.095594,135.062088 15.003157,113.580276 
	C14.981822,108.622353 15.000010,103.664253 15.000010,98.357468 
	C56.097572,98.357468 96.650040,98.357468 137.601730,98.357468 
	C137.601730,125.017998 137.601730,151.575043 137.601730,178.521851 
	C136.391861,178.675873 135.129440,178.976212 133.866821,178.977020 
	C95.549301,179.001648 57.231762,178.999084 18.914232,178.983704 
	C17.924723,178.983307 16.935295,178.792160 15.622595,178.357803 
z"/>
<path fill="#FDA061" opacity="1.000000" stroke="none" 
	d="
M394.000000,185.000000 
	C405.130707,185.000000 415.761414,185.000000 426.693787,185.000000 
	C426.693787,192.640793 426.693787,199.905380 426.693787,207.586594 
	C290.148987,207.586594 153.469269,207.586594 16.394623,207.586594 
	C16.394623,200.421539 16.394623,193.038712 16.394623,185.000000 
	C142.065353,185.000000 267.782684,185.000000 394.000000,185.000000 
z"/>
<path fill="#F8F9FB" opacity="1.000000" stroke="none" 
	d="
M382.000000,20.999996 
	C274.835724,20.999996 168.171432,21.000135 61.507153,20.999634 
	C55.432907,20.999605 52.964836,17.601307 55.127232,11.960597 
	C55.451530,11.114655 56.699352,10.382527 57.668789,10.088528 
	C58.738541,9.764104 59.979801,10.000665 61.146358,10.000658 
	C181.476990,9.999965 301.807648,9.999454 422.138275,10.001643 
	C428.172058,10.001753 429.172699,11.003939 429.030212,16.272999 
	C428.937988,19.683189 427.734467,21.139439 423.997711,21.083036 
	C410.167877,20.874290 396.332977,20.999981 382.000000,20.999996 
z"/>
<path fill="#FA6057" opacity="1.000000" stroke="none" 
	d="
M12.284595,18.431004 
	C12.109457,16.577484 12.109457,15.115718 12.109457,13.327505 
	C14.387965,13.327505 16.433661,13.327505 19.306099,13.327505 
	C18.796421,15.591080 18.916676,18.086973 17.728827,19.275488 
	C16.926588,20.078175 14.280855,19.038391 12.284595,18.431004 
z"/>
<path fill="#FB9F61" opacity="1.000000" stroke="none" 
	d="
M24.006741,16.762409 
	C23.738070,10.427924 28.169559,14.251824 30.020695,12.728568 
	C30.492290,13.023022 30.963886,13.317476 31.435480,13.611930 
	C30.729301,15.688116 30.609268,18.591812 29.159739,19.618542 
	C27.561991,20.750259 24.458391,20.730202 24.006741,16.762409 
z"/>
<path fill="#1BC0A0" opacity="1.000000" stroke="none" 
	d="
M38.401051,14.316202 
	C40.433445,13.557030 42.243778,13.138418 45.321602,12.426719 
	C44.731773,15.260491 44.654640,17.256071 43.822533,18.859968 
	C43.470631,19.538263 40.813961,19.969076 40.447189,19.513098 
	C39.359600,18.160982 38.890133,16.311674 38.401051,14.316202 
z"/>
</svg>