<svg version="1.1" id="Layer_1" xmlns="http://www.w3.org/2000/svg" xmlns:xlink="http://www.w3.org/1999/xlink" x="0px" y="0px"
	 width="100%" viewBox="0 0 437 223" enable-background="new 0 0 437 223" xml:space="preserve">
<path fill="#2C3043" opacity="1.000000" stroke="none" 
	d="
M293.000000,224.000000 
	C195.333344,224.000000 98.166702,224.000000 1.000039,224.000000 
	C1.000026,149.666702 1.000026,75.333397 1.000013,1.000069 
	C146.666611,1.000046 292.333221,1.000046 437.999878,1.000023 
	C437.999908,75.333260 437.999908,149.666519 437.999939,223.999893 
	C389.833344,224.000000 341.666656,224.000000 293.000000,224.000000 
M145.999802,42.665367 
	C145.898071,41.227276 145.796341,39.789188 145.696106,38.372444 
	C102.653000,38.372444 59.979507,38.372444 17.430332,38.372444 
	C17.430332,64.767662 17.430332,90.788246 17.430332,116.710716 
	C60.416595,116.710716 102.971939,116.710716 146.000000,116.710716 
	C146.000000,92.161400 146.000000,67.898308 145.999802,42.665367 
M157.000000,77.500000 
	C157.000000,90.576714 157.000000,103.653427 157.000000,116.593407 
	C200.426056,116.593407 243.107925,116.593407 285.716980,116.593407 
	C285.716980,90.276619 285.716980,64.367378 285.716980,38.318115 
	C242.752106,38.318115 200.070892,38.318115 157.000000,38.318115 
	C157.000000,51.255001 157.000000,63.877502 157.000000,77.500000 
M350.500000,117.000000 
	C375.238464,117.000000 399.976898,117.000000 424.595032,117.000000 
	C424.595032,90.254700 424.595032,64.219383 424.595032,38.265572 
	C381.615326,38.265572 339.041077,38.265572 296.316528,38.265572 
	C296.316528,64.566414 296.316528,90.600700 296.316528,117.000000 
	C314.253815,117.000000 331.876923,117.000000 350.500000,117.000000 
M146.000000,160.500000 
	C146.000000,149.429596 146.000000,138.359192 146.000000,127.424377 
	C102.503853,127.424377 59.956493,127.424377 17.385292,127.424377 
	C17.385292,153.737900 17.385292,179.625168 17.385292,205.664062 
	C60.317978,205.664062 102.864677,205.664062 146.000000,205.664062 
	C146.000000,190.723373 146.000000,176.111694 146.000000,160.500000 
M166.545029,206.000000 
	C206.255630,206.000000 245.966232,206.000000 285.661194,206.000000 
	C285.661194,179.270172 285.661194,153.376709 285.661194,127.420090 
	C242.654480,127.420090 199.987930,127.420090 157.341522,127.420090 
	C157.341522,153.735123 157.341522,179.628586 157.341522,206.000000 
	C160.305115,206.000000 162.932983,206.000000 166.545029,206.000000 
M425.000000,188.498566 
	C425.000000,168.085464 425.000000,147.672379 425.000000,127.310005 
	C381.615601,127.310005 339.031647,127.310005 296.399963,127.310005 
	C296.399963,153.659378 296.399963,179.696732 296.399963,205.689880 
	C339.384613,205.689880 381.968567,205.689880 425.000000,205.689880 
	C425.000000,200.091263 425.000000,194.794556 425.000000,188.498566 
M264.500000,21.000000 
	C317.165436,20.999994 369.830994,20.955450 422.496094,21.086277 
	C426.617798,21.096516 427.941132,19.709488 428.077637,15.777541 
	C428.259613,10.535537 425.380737,9.947896 421.140930,9.950080 
	C300.810303,10.012085 180.479645,9.999959 60.148979,10.000646 
	C58.982422,10.000652 57.775116,9.827082 56.662415,10.074482 
	C55.797989,10.266681 54.704597,10.796653 54.308922,11.507989 
	C51.706879,16.185863 54.644386,20.998758 60.004524,20.998892 
	C127.836349,21.000572 195.668182,20.999998 264.500000,21.000000 
M37.142273,18.031078 
	C38.954323,18.560600 40.766376,19.090120 42.578430,19.619642 
	C43.143860,17.641348 43.709293,15.663054 44.414242,13.196622 
	C40.373165,13.243111 36.351875,11.225727 37.142273,18.031078 
M17.991125,15.452215 
	C16.981361,10.706978 13.666220,13.973993 10.849668,13.795948 
	C11.537344,16.198706 12.429637,18.857830 14.200218,19.726248 
	C16.568165,20.887650 18.174805,19.105839 17.991125,15.452215 
M29.996675,16.320578 
	C30.363102,13.816922 29.379328,12.408763 26.794571,13.075003 
	C25.450645,13.421408 23.147743,14.833988 23.251898,15.194171 
	C23.737207,16.872463 24.911482,18.351528 25.839333,19.901854 
	C27.221981,18.988911 28.604628,18.075970 29.996675,16.320578 
z"/>
<path fill="#FC6057" opacity="1.000000" stroke="none" 
	d="
M145.999908,43.150288 
	C146.000000,67.898308 146.000000,92.161400 146.000000,116.710716 
	C102.971939,116.710716 60.416595,116.710716 17.430332,116.710716 
	C17.430332,90.788246 17.430332,64.767662 17.430332,38.372444 
	C59.979507,38.372444 102.653000,38.372444 145.696106,38.372444 
	C145.796341,39.789188 145.898071,41.227276 145.999908,43.150288 
z"/>
<path fill="#FD825C" opacity="1.000000" stroke="none" 
	d="
M157.000000,77.000000 
	C157.000000,63.877502 157.000000,51.255001 157.000000,38.318115 
	C200.070892,38.318115 242.752106,38.318115 285.716980,38.318115 
	C285.716980,64.367378 285.716980,90.276619 285.716980,116.593407 
	C243.107925,116.593407 200.426056,116.593407 157.000000,116.593407 
	C157.000000,103.653427 157.000000,90.576714 157.000000,77.000000 
z"/>
<path fill="#FDA061" opacity="1.000000" stroke="none" 
	d="
M350.000000,117.000000 
	C331.876923,117.000000 314.253815,117.000000 296.316528,117.000000 
	C296.316528,90.600700 296.316528,64.566414 296.316528,38.265572 
	C339.041077,38.265572 381.615326,38.265572 424.595032,38.265572 
	C424.595032,64.219383 424.595032,90.254700 424.595032,117.000000 
	C399.976898,117.000000 375.238464,117.000000 350.000000,117.000000 
z"/>
<path fill="#01A787" opacity="1.000000" stroke="none" 
	d="
M146.000000,161.000000 
	C146.000000,176.111694 146.000000,190.723373 146.000000,205.664062 
	C102.864677,205.664062 60.317978,205.664062 17.385292,205.664062 
	C17.385292,179.625168 17.385292,153.737900 17.385292,127.424377 
	C59.956493,127.424377 102.503853,127.424377 146.000000,127.424377 
	C146.000000,138.359192 146.000000,149.429596 146.000000,161.000000 
z"/>
<path fill="#1BC1A1" opacity="1.000000" stroke="none" 
	d="
M166.052948,206.000000 
	C162.932983,206.000000 160.305115,206.000000 157.341522,206.000000 
	C157.341522,179.628586 157.341522,153.735123 157.341522,127.420090 
	C199.987930,127.420090 242.654480,127.420090 285.661194,127.420090 
	C285.661194,153.376709 285.661194,179.270172 285.661194,206.000000 
	C245.966232,206.000000 206.255630,206.000000 166.052948,206.000000 
z"/>
<path fill="#34DABA" opacity="1.000000" stroke="none" 
	d="
M425.000000,188.998199 
	C425.000000,194.794556 425.000000,200.091263 425.000000,205.689880 
	C381.968567,205.689880 339.384613,205.689880 296.399963,205.689880 
	C296.399963,179.696732 296.399963,153.659378 296.399963,127.310005 
	C339.031647,127.310005 381.615601,127.310005 425.000000,127.310005 
	C425.000000,147.672379 425.000000,168.085464 425.000000,188.998199 
z"/>
<path fill="#F8F9FB" opacity="1.000000" stroke="none" 
	d="
M264.000000,21.000000 
	C195.668182,20.999998 127.836349,21.000572 60.004524,20.998892 
	C54.644386,20.998758 51.706879,16.185863 54.308922,11.507989 
	C54.704597,10.796653 55.797989,10.266681 56.662415,10.074482 
	C57.775116,9.827082 58.982422,10.000652 60.148979,10.000646 
	C180.479645,9.999959 300.810303,10.012085 421.140930,9.950080 
	C425.380737,9.947896 428.259613,10.535537 428.077637,15.777541 
	C427.941132,19.709488 426.617798,21.096516 422.496094,21.086277 
	C369.830994,20.955450 317.165436,20.999994 264.000000,21.000000 
z"/>
<path fill="#1BC0A0" opacity="1.000000" stroke="none" 
	d="
M37.087856,17.609543 
	C36.351875,11.225727 40.373165,13.243111 44.414242,13.196622 
	C43.709293,15.663054 43.143860,17.641348 42.578430,19.619642 
	C40.766376,19.090120 38.954323,18.560600 37.087856,17.609543 
z"/>
<path fill="#FB6057" opacity="1.000000" stroke="none" 
	d="
M17.993885,15.881817 
	C18.174805,19.105839 16.568165,20.887650 14.200218,19.726248 
	C12.429637,18.857830 11.537344,16.198706 10.849668,13.795948 
	C13.666220,13.973993 16.981361,10.706978 17.993885,15.881817 
z"/>
<path fill="#FDA061" opacity="1.000000" stroke="none" 
	d="
M29.991974,16.741802 
	C28.604628,18.075970 27.221981,18.988911 25.839333,19.901852 
	C24.911482,18.351528 23.737207,16.872463 23.251898,15.194171 
	C23.147743,14.833988 25.450645,13.421408 26.794571,13.075003 
	C29.379328,12.408763 30.363102,13.816922 29.991974,16.741802 
z"/>
</svg>