<svg version="1.1" id="Layer_1" xmlns="http://www.w3.org/2000/svg" xmlns:xlink="http://www.w3.org/1999/xlink" x="0px" y="0px"
	 width="100%" viewBox="0 0 440 223" enable-background="new 0 0 440 223" xml:space="preserve">
<path fill="#2C3043" opacity="1.000000" stroke="none" 
	d="
M298.000000,224.000000 
	C198.666687,224.000000 99.833366,224.000000 1.000040,224.000000 
	C1.000026,149.666702 1.000026,75.333397 1.000013,1.000070 
	C147.666611,1.000046 294.333221,1.000046 440.999878,1.000023 
	C440.999908,75.333260 440.999908,149.666519 440.999939,223.999893 
	C393.500000,224.000000 346.000000,224.000000 298.000000,224.000000 
M24.587395,86.000000 
	C22.175110,86.000000 19.762825,86.000000 17.407881,86.000000 
	C17.407881,127.784760 17.407881,168.671005 17.407881,209.635559 
	C65.034042,209.635559 112.251450,209.635559 159.676254,209.635559 
	C159.676254,168.384888 159.676254,127.499153 159.676254,86.000000 
	C114.757988,86.000000 70.160667,86.000000 24.587395,86.000000 
M269.500000,35.000000 
	C184.770752,35.000000 100.041504,35.000000 15.410046,35.000000 
	C15.410046,49.069790 15.410046,62.450394 15.410046,75.745712 
	C153.383347,75.745712 290.946472,75.745712 428.678314,75.745712 
	C428.678314,62.111088 428.678314,48.732353 428.678314,35.000000 
	C375.738281,35.000000 323.119141,35.000000 269.500000,35.000000 
M330.500000,143.000000 
	C363.245056,143.000000 395.990143,143.000000 428.685242,143.000000 
	C428.685242,123.278755 428.685242,104.357399 428.685242,85.399094 
	C343.003296,85.399094 257.636719,85.399094 172.314758,85.399094 
	C172.314758,104.721207 172.314758,123.642517 172.314758,143.000000 
	C224.918854,143.000000 277.209412,143.000000 330.500000,143.000000 
M296.000000,185.499969 
	C296.000000,174.080917 296.000000,162.661865 296.000000,151.307190 
	C254.283798,151.307190 213.360352,151.307190 172.395996,151.307190 
	C172.395996,170.659317 172.395996,189.701569 172.395996,208.692825 
	C213.716202,208.692825 254.639679,208.692825 296.000000,208.692825 
	C296.000000,201.093811 296.000000,193.796875 296.000000,185.499969 
M374.500000,151.000000 
	C351.428986,151.000000 328.357971,151.000000 305.407074,151.000000 
	C305.407074,170.745590 305.407074,189.783127 305.407074,208.735809 
	C346.719940,208.735809 387.625214,208.735809 428.681396,208.735809 
	C428.681396,189.433609 428.681396,170.396988 428.681396,151.000000 
	C410.743195,151.000000 393.121613,151.000000 374.500000,151.000000 
M343.500000,20.999996 
	C370.332672,20.999981 397.165710,20.930019 423.997528,21.080528 
	C427.728394,21.101456 428.937836,19.684914 429.030243,16.273960 
	C429.173004,11.004276 428.172485,10.001758 422.139252,10.001648 
	C301.808594,9.999454 181.477936,9.999967 61.147270,10.000656 
	C59.980713,10.000663 58.739529,9.764183 57.669678,10.088452 
	C56.700066,10.382338 55.451813,11.113873 55.127293,11.959716 
	C52.963993,17.598223 55.433662,20.999596 61.506248,20.999628 
	C155.170837,21.000153 248.835419,20.999996 343.500000,20.999996 
M12.002048,16.340008 
	C11.827455,20.064409 14.620531,20.885098 16.825651,19.671684 
	C18.344929,18.835669 18.632603,15.761475 19.470711,13.687577 
	C18.837521,13.170608 18.204329,12.653638 17.571136,12.136668 
	C15.716209,13.249362 13.861281,14.362056 12.002048,16.340008 
M30.802788,13.737242 
	C28.641010,13.464941 26.479233,13.192640 23.998518,12.880166 
	C24.346317,16.237026 22.563374,19.684753 27.291996,19.994194 
	C31.578878,20.274727 31.001528,17.252951 30.802788,13.737242 
M38.634708,14.009113 
	C37.965450,18.558901 39.788857,20.980217 42.851498,19.386499 
	C44.138752,18.716646 45.762299,16.572178 45.521107,15.474073 
	C44.720398,11.828626 41.738819,12.898898 38.634708,14.009113 
z"/>
<path fill="#01A787" opacity="1.000000" stroke="none" 
	d="
M25.075375,86.000000 
	C70.160667,86.000000 114.757988,86.000000 159.676254,86.000000 
	C159.676254,127.499153 159.676254,168.384888 159.676254,209.635559 
	C112.251450,209.635559 65.034042,209.635559 17.407881,209.635559 
	C17.407881,168.671005 17.407881,127.784760 17.407881,86.000000 
	C19.762825,86.000000 22.175110,86.000000 25.075375,86.000000 
z"/>
<path fill="#FDA061" opacity="1.000000" stroke="none" 
	d="
M270.000000,35.000000 
	C323.119141,35.000000 375.738281,35.000000 428.678314,35.000000 
	C428.678314,48.732353 428.678314,62.111088 428.678314,75.745712 
	C290.946472,75.745712 153.383347,75.745712 15.410046,75.745712 
	C15.410046,62.450394 15.410046,49.069790 15.410046,35.000000 
	C100.041504,35.000000 184.770752,35.000000 270.000000,35.000000 
z"/>
<path fill="#34DABA" opacity="1.000000" stroke="none" 
	d="
M330.000000,143.000000 
	C277.209412,143.000000 224.918854,143.000000 172.314758,143.000000 
	C172.314758,123.642517 172.314758,104.721207 172.314758,85.399094 
	C257.636719,85.399094 343.003296,85.399094 428.685242,85.399094 
	C428.685242,104.357399 428.685242,123.278755 428.685242,143.000000 
	C395.990143,143.000000 363.245056,143.000000 330.000000,143.000000 
z"/>
<path fill="#FC6057" opacity="1.000000" stroke="none" 
	d="
M296.000000,185.999954 
	C296.000000,193.796875 296.000000,201.093811 296.000000,208.692825 
	C254.639679,208.692825 213.716202,208.692825 172.395996,208.692825 
	C172.395996,189.701569 172.395996,170.659317 172.395996,151.307190 
	C213.360352,151.307190 254.283798,151.307190 296.000000,151.307190 
	C296.000000,162.661865 296.000000,174.080917 296.000000,185.999954 
z"/>
<path fill="#FDA061" opacity="1.000000" stroke="none" 
	d="
M375.000000,151.000000 
	C393.121613,151.000000 410.743195,151.000000 428.681396,151.000000 
	C428.681396,170.396988 428.681396,189.433609 428.681396,208.735809 
	C387.625214,208.735809 346.719940,208.735809 305.407074,208.735809 
	C305.407074,189.783127 305.407074,170.745590 305.407074,151.000000 
	C328.357971,151.000000 351.428986,151.000000 375.000000,151.000000 
z"/>
<path fill="#F8F9FB" opacity="1.000000" stroke="none" 
	d="
M343.000000,20.999996 
	C248.835419,20.999996 155.170837,21.000153 61.506248,20.999628 
	C55.433662,20.999596 52.963993,17.598223 55.127293,11.959716 
	C55.451813,11.113873 56.700066,10.382338 57.669678,10.088452 
	C58.739529,9.764183 59.980713,10.000663 61.147270,10.000656 
	C181.477936,9.999967 301.808594,9.999454 422.139252,10.001648 
	C428.172485,10.001758 429.173004,11.004276 429.030243,16.273960 
	C428.937836,19.684914 427.728394,21.101456 423.997528,21.080528 
	C397.165710,20.930019 370.332672,20.999981 343.000000,20.999996 
z"/>
<path fill="#FA6057" opacity="1.000000" stroke="none" 
	d="
M12.004202,15.907379 
	C13.861281,14.362056 15.716209,13.249362 17.571136,12.136668 
	C18.204329,12.653638 18.837521,13.170608 19.470711,13.687577 
	C18.632603,15.761475 18.344929,18.835669 16.825651,19.671684 
	C14.620531,20.885098 11.827455,20.064409 12.004202,15.907379 
z"/>
<path fill="#FB9F61" opacity="1.000000" stroke="none" 
	d="
M30.884583,14.166719 
	C31.001528,17.252951 31.578878,20.274727 27.291996,19.994194 
	C22.563374,19.684753 24.346317,16.237026 23.998518,12.880166 
	C26.479233,13.192640 28.641010,13.464941 30.884583,14.166719 
z"/>
<path fill="#1CBE9F" opacity="1.000000" stroke="none" 
	d="
M38.918587,13.718466 
	C41.738819,12.898898 44.720398,11.828626 45.521107,15.474073 
	C45.762299,16.572178 44.138752,18.716646 42.851498,19.386499 
	C39.788857,20.980217 37.965450,18.558901 38.918587,13.718466 
z"/>
</svg>