<svg version="1.1" id="Layer_1" xmlns="http://www.w3.org/2000/svg" xmlns:xlink="http://www.w3.org/1999/xlink" x="0px" y="0px"
	 width="100%" viewBox="0 0 440 223" enable-background="new 0 0 440 223" xml:space="preserve">
<path fill="#2C3043" opacity="1.000000" stroke="none" 
	d="
M308.000000,224.000000 
	C205.333359,224.000000 103.166702,224.000000 1.000041,224.000000 
	C1.000027,149.666702 1.000027,75.333397 1.000014,1.000071 
	C147.666611,1.000047 294.333221,1.000047 440.999878,1.000024 
	C440.999908,75.333260 440.999908,149.666519 440.999939,223.999893 
	C396.833344,224.000000 352.666656,224.000000 308.000000,224.000000 
M83.500000,83.000000 
	C61.083996,83.000000 38.667988,83.000000 16.307796,83.000000 
	C16.307796,124.716438 16.307796,165.640381 16.307796,206.604095 
	C85.657608,206.604095 154.698883,206.604095 223.692169,206.604095 
	C223.692169,165.283478 223.692169,124.359520 223.692169,83.000000 
	C177.090454,83.000000 130.795227,83.000000 83.500000,83.000000 
M114.500000,34.000000 
	C81.763344,34.000000 49.026691,34.000000 16.415031,34.000000 
	C16.415031,48.752197 16.415031,62.796513 16.415031,76.736298 
	C85.729874,76.736298 154.629395,76.736298 223.673492,76.736298 
	C223.673492,62.428295 223.673492,48.385975 223.673492,34.000000 
	C187.398743,34.000000 151.449371,34.000000 114.500000,34.000000 
M235.008163,74.242317 
	C235.044250,78.748314 238.530701,76.917091 240.509979,76.920288 
	C300.839294,77.017921 361.168793,76.999931 421.498260,76.999931 
	C423.247009,76.999931 424.995728,76.999931 426.680603,76.999931 
	C426.680603,62.270340 426.680603,48.347733 426.680603,34.409779 
	C362.656311,34.409779 298.952240,34.409779 235.001465,34.409779 
	C235.001465,47.640137 235.001465,60.462246 235.008163,74.242317 
M425.999817,190.498535 
	C425.999817,155.105728 425.999817,119.712914 425.999817,84.418335 
	C361.851471,84.418335 298.637451,84.418335 235.378723,84.418335 
	C235.378723,125.724022 235.378723,166.610641 235.378723,207.669952 
	C298.971130,207.669952 362.184753,207.669952 425.999817,207.669952 
	C425.999817,202.066406 425.999817,196.782074 425.999817,190.498535 
M397.500000,21.000000 
	C406.333099,20.999987 415.171326,20.824930 423.996918,21.082611 
	C427.740173,21.191900 428.938110,19.682570 429.030212,16.272644 
	C429.172577,11.003780 428.171906,10.001747 422.137939,10.001637 
	C301.807281,9.999449 181.476654,9.999959 61.146008,10.000651 
	C59.979450,10.000658 58.738163,9.764069 57.668446,10.088550 
	C56.699078,10.382594 55.451420,11.114952 55.127209,11.960930 
	C52.965153,17.602484 55.432613,20.999611 61.507488,20.999638 
	C173.171661,21.000132 284.835815,21.000000 397.500000,21.000000 
M12.459729,18.822756 
	C14.280852,19.038393 16.926588,20.078176 17.728821,19.275494 
	C18.916672,18.086973 18.796423,15.591084 19.306103,13.327501 
	C16.433668,13.327501 14.387969,13.327501 12.109453,13.327501 
	C12.109453,15.115711 12.109453,16.577478 12.459729,18.822756 
M24.033974,14.596739 
	C23.787186,17.673941 23.912279,20.675009 28.220282,19.934935 
	C32.688889,19.167273 30.570023,15.868581 30.874739,12.729538 
	C28.275215,13.122031 26.238012,13.429622 24.033974,14.596739 
M44.716011,13.798968 
	C42.598495,13.525609 40.480980,13.252250 38.444584,12.989363 
	C37.643009,16.870924 37.629681,19.690046 41.698982,19.872948 
	C45.612808,20.048864 44.961300,17.065863 44.716011,13.798968 
z"/>
<path fill="#FC6057" opacity="1.000000" stroke="none" 
	d="
M84.000000,83.000000 
	C130.795227,83.000000 177.090454,83.000000 223.692169,83.000000 
	C223.692169,124.359520 223.692169,165.283478 223.692169,206.604095 
	C154.698883,206.604095 85.657608,206.604095 16.307796,206.604095 
	C16.307796,165.640381 16.307796,124.716438 16.307796,83.000000 
	C38.667988,83.000000 61.083996,83.000000 84.000000,83.000000 
z"/>
<path fill="#FDA061" opacity="1.000000" stroke="none" 
	d="
M115.000000,34.000000 
	C151.449371,34.000000 187.398743,34.000000 223.673492,34.000000 
	C223.673492,48.385975 223.673492,62.428295 223.673492,76.736298 
	C154.629395,76.736298 85.729874,76.736298 16.415031,76.736298 
	C16.415031,62.796513 16.415031,48.752197 16.415031,34.000000 
	C49.026691,34.000000 81.763344,34.000000 115.000000,34.000000 
z"/>
<path fill="#34DABA" opacity="1.000000" stroke="none" 
	d="
M235.004822,73.763336 
	C235.001465,60.462246 235.001465,47.640137 235.001465,34.409779 
	C298.952240,34.409779 362.656311,34.409779 426.680603,34.409779 
	C426.680603,48.347733 426.680603,62.270340 426.680603,76.999931 
	C424.995728,76.999931 423.247009,76.999931 421.498260,76.999931 
	C361.168793,76.999931 300.839294,77.017921 240.509979,76.920288 
	C238.530701,76.917091 235.044250,78.748314 235.004822,73.763336 
z"/>
<path fill="#01A787" opacity="1.000000" stroke="none" 
	d="
M425.999817,190.998138 
	C425.999817,196.782074 425.999817,202.066406 425.999817,207.669952 
	C362.184753,207.669952 298.971130,207.669952 235.378723,207.669952 
	C235.378723,166.610641 235.378723,125.724022 235.378723,84.418335 
	C298.637451,84.418335 361.851471,84.418335 425.999817,84.418335 
	C425.999817,119.712914 425.999817,155.105728 425.999817,190.998138 
M377.500000,142.013977 
	C389.165283,142.013779 400.833130,141.875168 412.494476,142.089584 
	C416.496735,142.163162 418.091217,141.128387 418.014008,136.820236 
	C417.772156,123.326111 417.789429,109.822731 418.006866,96.327782 
	C418.073303,92.206245 416.812805,90.912178 412.638092,90.921272 
	C357.478058,91.041519 302.317535,91.046288 247.157516,90.915100 
	C242.826096,90.904800 241.863724,92.463928 241.925400,96.435814 
	C242.127167,109.431183 241.996643,122.431656 242.002426,135.430161 
	C242.005356,141.999191 242.013687,142.011322 248.514725,142.011917 
	C291.176483,142.015778 333.838226,142.013977 377.500000,142.013977 
M242.000610,165.501511 
	C242.001038,174.991547 242.105942,184.483322 241.947144,193.970688 
	C241.888901,197.450455 242.735214,199.086151 246.647430,199.065125 
	C271.620453,198.930923 296.594696,198.961197 321.568207,199.038589 
	C324.728027,199.048370 326.049805,198.031570 326.024200,194.733078 
	C325.914215,180.582138 325.914764,166.429382 326.024017,152.278442 
	C326.049408,148.992874 324.752686,147.948959 321.580902,147.958832 
	C296.607391,148.036560 271.633362,148.043671 246.659943,147.949768 
	C243.279816,147.937057 241.764511,148.961960 241.954773,152.517563 
	C242.167953,156.501892 242.001724,160.506516 242.000610,165.501511 
M334.994080,161.508850 
	C334.994080,173.925705 334.994080,186.342560 334.994080,198.672150 
	C363.280457,198.672150 390.846069,198.672150 418.437256,198.672150 
	C418.437256,181.632187 418.437256,164.922928 418.437256,148.276886 
	C390.473938,148.276886 362.902985,148.276886 334.994080,148.276886 
	C334.994080,152.568130 334.994080,156.540329 334.994080,161.508850 
z"/>
<path fill="#F8F9FB" opacity="1.000000" stroke="none" 
	d="
M397.000000,21.000000 
	C284.835815,21.000000 173.171661,21.000132 61.507488,20.999638 
	C55.432613,20.999611 52.965153,17.602484 55.127209,11.960930 
	C55.451420,11.114952 56.699078,10.382594 57.668446,10.088550 
	C58.738163,9.764069 59.979450,10.000658 61.146008,10.000651 
	C181.476654,9.999959 301.807281,9.999449 422.137939,10.001637 
	C428.171906,10.001747 429.172577,11.003780 429.030212,16.272644 
	C428.938110,19.682570 427.740173,21.191900 423.996918,21.082611 
	C415.171326,20.824930 406.333099,20.999987 397.000000,21.000000 
z"/>
<path fill="#FA6057" opacity="1.000000" stroke="none" 
	d="
M12.284592,18.431000 
	C12.109453,16.577478 12.109453,15.115711 12.109453,13.327501 
	C14.387969,13.327501 16.433668,13.327501 19.306103,13.327501 
	C18.796423,15.591084 18.916672,18.086973 17.728821,19.275494 
	C16.926588,20.078176 14.280852,19.038393 12.284592,18.431000 
z"/>
<path fill="#FB9F61" opacity="1.000000" stroke="none" 
	d="
M24.117392,14.166975 
	C26.238012,13.429622 28.275215,13.122031 30.874739,12.729538 
	C30.570023,15.868581 32.688889,19.167273 28.220282,19.934935 
	C23.912279,20.675009 23.787186,17.673941 24.117392,14.166975 
z"/>
<path fill="#1BBFA0" opacity="1.000000" stroke="none" 
	d="
M44.823227,14.211706 
	C44.961300,17.065863 45.612808,20.048864 41.698982,19.872948 
	C37.629681,19.690046 37.643009,16.870924 38.444584,12.989363 
	C40.480980,13.252250 42.598495,13.525609 44.823227,14.211706 
z"/>
<path fill="#34DABA" opacity="1.000000" stroke="none" 
	d="
M377.000000,142.014008 
	C333.838226,142.013977 291.176483,142.015778 248.514725,142.011917 
	C242.013687,142.011322 242.005356,141.999191 242.002426,135.430161 
	C241.996643,122.431656 242.127167,109.431183 241.925400,96.435814 
	C241.863724,92.463928 242.826096,90.904800 247.157516,90.915100 
	C302.317535,91.046288 357.478058,91.041519 412.638092,90.921272 
	C416.812805,90.912178 418.073303,92.206245 418.006866,96.327782 
	C417.789429,109.822731 417.772156,123.326111 418.014008,136.820236 
	C418.091217,141.128387 416.496735,142.163162 412.494476,142.089584 
	C400.833130,141.875168 389.165283,142.013779 377.000000,142.014008 
z"/>
<path fill="#1BC1A1" opacity="1.000000" stroke="none" 
	d="
M242.000610,165.001923 
	C242.001724,160.506516 242.167953,156.501892 241.954773,152.517563 
	C241.764511,148.961960 243.279816,147.937057 246.659943,147.949768 
	C271.633362,148.043671 296.607391,148.036560 321.580902,147.958832 
	C324.752686,147.948959 326.049408,148.992874 326.024017,152.278442 
	C325.914764,166.429382 325.914215,180.582138 326.024200,194.733078 
	C326.049805,198.031570 324.728027,199.048370 321.568207,199.038589 
	C296.594696,198.961197 271.620453,198.930923 246.647430,199.065125 
	C242.735214,199.086151 241.888901,197.450455 241.947144,193.970688 
	C242.105942,184.483322 242.001038,174.991547 242.000610,165.001923 
z"/>
<path fill="#FDA061" opacity="1.000000" stroke="none" 
	d="
M334.994080,161.010681 
	C334.994080,156.540329 334.994080,152.568130 334.994080,148.276886 
	C362.902985,148.276886 390.473938,148.276886 418.437256,148.276886 
	C418.437256,164.922928 418.437256,181.632187 418.437256,198.672150 
	C390.846069,198.672150 363.280457,198.672150 334.994080,198.672150 
	C334.994080,186.342560 334.994080,173.925705 334.994080,161.010681 
z"/>
</svg>